<svg width="18" height="18" viewBox="0 0 18 18" fill="none" xmlns="http://www.w3.org/2000/svg">
<path d="M2.875 0.5625C1.90375 0.5625 1.125 1.34125 1.125 2.3125V14.5625C1.125 15.0266 1.30937 15.4717 1.63756 15.7999C1.96575 16.1281 2.41087 16.3125 2.875 16.3125H15.125C15.5891 16.3125 16.0342 16.1281 16.3624 15.7999C16.6906 15.4717 16.875 15.0266 16.875 14.5625V8.4375H15.125V14.5625H2.875V2.3125H9V0.5625H2.875ZM14.0575 1.4375C13.9 1.43883 13.7493 1.50163 13.6375 1.6125L12.57 2.67125L14.7575 4.85875L15.825 3.8C16.0525 3.5725 16.0525 3.1875 15.825 2.96875L14.4688 1.6125C14.355 1.49875 14.2063 1.4375 14.0575 1.4375ZM11.9487 3.2925L5.5 9.75V11.9375H7.6875L14.1363 5.48L11.9487 3.2925Z" fill="white"/>
</svg>
